# xmcd CD database file
#
# Track frame offsets:
#	183
#	13093
#	31790
#	46950
#	58983
#	80855
#	97930
#	113155
#	127665
#	142538
#
# Disc length: 2168 seconds
#
# Revision: 10
# Processed by: cddbd v1.5.2PL0 Copyright (c) Steve Scherf et al.
# Submitted via: CDex 1.70beta2
#
DISCID=7508760a
DTITLE=Robert Cray - Who's Been Talkin'
DYEAR=1986
DGENRE=Blues
TTITLE0=Too Many Cooks
TTITLE1=The Score
TTITLE2=When the Welfare Turns It's Back on You
TTITLE3=That's What I'll Do
TTITLE4=I'd Rather Be a Wino
TTITLE5=Who's Been Talkin'
TTITLE6=Sleeping in the Ground
TTITLE7=I'm Gonna Forget about You
TTITLE8=Nice as a Fool Can Be
TTITLE9=If You're Thinkin' What I'm Thinkin'
EXTD=YEAR: 1986
EXTT0=
EXTT1=
EXTT2=
EXTT3=
EXTT4=
EXTT5=
EXTT6=
EXTT7=
EXTT8=
EXTT9=
PLAYORDER=
